<?xml version="1.0" encoding="iso-8859-1"?>
<!-- Generator: Adobe Illustrator 16.0.0, SVG Export Plug-In . SVG Version: 6.00 Build 0)  -->
<!DOCTYPE svg PUBLIC "-//W3C//DTD SVG 1.1//EN" "http://www.w3.org/Graphics/SVG/1.1/DTD/svg11.dtd">
<svg version="1.1" id="Layer_1" xmlns="http://www.w3.org/2000/svg" xmlns:xlink="http://www.w3.org/1999/xlink" x="0px" y="0px"
	 width="18.811px" height="19.8px" viewBox="-11.707 4.129 18.811 19.8" style="enable-background:new -11.707 4.129 18.811 19.8;"
	 xml:space="preserve">
<g>
	
		<ellipse style="fill:#FFFFFF;stroke:#231F20;stroke-width:2;stroke-miterlimit:10;" cx="-3.838" cy="12.086" rx="6.87" ry="6.957"/>
	<g>
		<path style="fill:#FFFFFF;" d="M3.167,20.67c1.545,1.564,2.968,2.686,3.164,2.486c0.193-0.197-0.91-1.641-2.455-3.207L3.59,19.662
			c-1.544-1.566-2.969-2.686-3.163-2.486c-0.195,0.199,0.909,1.643,2.455,3.207L3.167,20.67z"/>
		<path style="fill:none;stroke:#231F20;stroke-width:1.5;stroke-miterlimit:10;" d="M3.167,20.67
			c1.545,1.564,2.968,2.686,3.164,2.486c0.193-0.197-0.91-1.641-2.455-3.207L3.59,19.662c-1.544-1.566-2.969-2.686-3.163-2.486
			c-0.195,0.199,0.909,1.643,2.455,3.207L3.167,20.67z"/>
	</g>
</g>
</svg>
